<svg xmlns="http://www.w3.org/2000/svg" data-name="Layer 1" viewBox="0 0 64 80" x="0px" y="0px"><path d="M8,27a3.9888,3.9888,0,0,0,2.1716,3.5369,4.0013,4.0013,0,0,0,2.03,6.6916A4.0034,4.0034,0,0,0,16.22,42.7831a4.0027,4.0027,0,0,0,5.5577,4.0128,3.9937,3.9937,0,0,0,6.571,2.1411,7.73,7.73,0,0,0,1.5768,2.5443,4.8223,4.8223,0,0,0-2.623,3.1867L26.03,59.7573A1.0071,1.0071,0,0,0,27,61H37a1.0071,1.0071,0,0,0,.97-1.2427L36.6978,54.668a4.8223,4.8223,0,0,0-2.623-3.1867,7.73,7.73,0,0,0,1.5768-2.5443,3.9938,3.9938,0,0,0,6.571-2.1411A4.0026,4.0026,0,0,0,47.78,42.7831a4.0088,4.0088,0,0,0,4.0154-5.5543,4.0009,4.0009,0,0,0,2.0327-6.6919,3.99,3.99,0,0,0,0-7.0738,3.9942,3.9942,0,0,0-2.0356-6.6858A3.9991,3.9991,0,0,0,47.78,11.22,4,4,0,0,0,42.223,7.2065a3.9946,3.9946,0,0,0-6.6861-2.0349,3.99,3.99,0,0,0-7.0738,0,3.9442,3.9442,0,0,0-4.0476-.947H24.415a3.9414,3.9414,0,0,0-2.6381,2.9823A3.9994,3.9994,0,0,0,16.22,11.22a4.0018,4.0018,0,0,0-4.016,5.557,3.9948,3.9948,0,0,0-2.0325,6.6858A3.9888,3.9888,0,0,0,8,27Zm8.8149-5.0581a3.9683,3.9683,0,0,0-.1425-2.8526,3.964,3.964,0,0,0,3.1536-4.2582,3.9676,3.9676,0,0,0,4.2624-3.1548,3.9872,3.9872,0,0,0,5.1318-1.81,4.019,4.019,0,0,0,5.56,0,3.9686,3.9686,0,0,0,2.2783,1.9488h0a3.93,3.93,0,0,0,2.8531-.1386,3.9675,3.9675,0,0,0,4.2623,3.1548,3.9642,3.9642,0,0,0,3.1538,4.2583,3.9688,3.9688,0,0,0-.1427,2.852v0A3.9686,3.9686,0,0,0,49.1339,24.22a4.019,4.019,0,0,0,0,5.56,3.9915,3.9915,0,0,0-1.8061,5.1308,3.9646,3.9646,0,0,0-3.1535,4.2638,3.964,3.964,0,0,0-4.2635,3.1529,3.9916,3.9916,0,0,0-5.131,1.8066,4.019,4.019,0,0,0-5.56,0A3.99,3.99,0,0,0,24.09,42.3281a3.965,3.965,0,0,0-4.2638-3.1538,3.9647,3.9647,0,0,0-3.1533-4.2637A3.9917,3.9917,0,0,0,14.8661,29.78a4.019,4.019,0,0,0,0-5.56A3.9686,3.9686,0,0,0,16.8149,21.9419ZM34,47a5.35,5.35,0,0,1-2,3.7236A5.349,5.349,0,0,1,30,47a2,2,0,0,1,4,0ZM11.1221,33.9531A2,2,0,0,1,14.9175,32.69,2,2,0,0,1,11.1221,33.9531Zm4.4321,6.8355a2,2,0,0,1,.609-3.9536A2,2,0,0,1,15.5542,40.7886Zm4.9385,4.3291a1.9973,1.9973,0,1,1-.3017-3.9756A1.9973,1.9973,0,0,1,20.4927,45.1177Zm7.0835,1.4941a2,2,0,0,1-3.7954-1.2632A2,2,0,0,1,27.5762,46.6118Zm7.1811,8.5415L35.7192,59H28.2808l.9619-3.8467A2.85,2.85,0,0,1,34.7573,55.1533ZM40.11,46.8755a2.0006,2.0006,0,0,1-3.5776-1.7906A2.0006,2.0006,0,0,1,40.11,46.8755Zm5.6782-3.43a2,2,0,0,1-3.9536-.609A2,2,0,0,1,45.7886,43.4458Zm3.9653-3.4517a2,2,0,0,1-3.2255-2.3648A2,2,0,0,1,49.7539,39.9941Zm3.124-6.0405A2,2,0,0,1,49.0826,32.69,2,2,0,0,1,52.8779,33.9536ZM52,29a2,2,0,0,1,0-4A2,2,0,0,1,52,29Zm.8779-8.9531a2,2,0,0,1-3.7954,1.2636A2,2,0,0,1,52.8779,20.0469Zm-4.7407-6.8594a1.9982,1.9982,0,1,1-.3,3.9775A1.9982,1.9982,0,0,1,48.1372,13.1875ZM43.814,8.86a1.9924,1.9924,0,1,1-1.1847,3.6118A1.9924,1.9924,0,0,1,43.814,8.86Zm-7.39-1.4717a2,2,0,0,1,3.7954,1.2632A2,2,0,0,1,36.4238,7.3882ZM32,5a2,2,0,0,1,0,4A2,2,0,0,1,32,5ZM23.89,7.1245a1.9872,1.9872,0,0,1,1.1568-1.0024h.0005A2,2,0,1,1,23.89,7.1245Zm-5.6782,3.43a2,2,0,0,1,3.9536.609A2,2,0,0,1,18.2114,10.5542Zm-3.9653,3.4517a2,2,0,0,1,3.2255,2.3648A2,2,0,0,1,14.2461,14.0059Zm-3.124,6.04A2,2,0,0,1,14.9174,21.31,2,2,0,0,1,11.1221,20.0464ZM12,25a2,2,0,0,1,0,4A2,2,0,0,1,12,25Z"/></svg>